HIERARCHY
ROOT root
{
  OFFSET 0 93.2929 0
  CHANNELS 6 Xposition Yposition Zposition Zrotation Xrotation Yrotation
  JOINT torso_1
  {
    OFFSET 0 5.07867 -1.15138
    CHANNELS 6 Xposition Yposition Zposition Zrotation Xrotation Yrotation
    JOINT torso_2
    {
      OFFSET 0 5.61661 1.07143
      CHANNELS 6 Xposition Yposition Zposition Zrotation Xrotation Yrotation
      JOINT torso_3
      {
        OFFSET -1.02604e-17 5.98978 0.11501
        CHANNELS 6 Xposition Yposition Zposition Zrotation Xrotation Yrotation
        JOINT torso_4
        {
          OFFSET -1.10457e-17 6.50583 -0.443523
          CHANNELS 6 Xposition Yposition Zposition Zrotation Xrotation Yrotation
          JOINT torso_5
          {
            OFFSET -1.97295e-17 7.60548 -1.50593
            CHANNELS 6 Xposition Yposition Zposition Zrotation Xrotation Yrotation
            JOINT torso_6
            {
              OFFSET -2.53307e-17 9.49737 -0.914492
              CHANNELS 6 Xposition Yposition Zposition Zrotation Xrotation Yrotation
              JOINT torso_7
              {
                OFFSET -2.90401e-17 10.5513 1.57691
                CHANNELS 6 Xposition Yposition Zposition Zrotation Xrotation Yrotation
                JOINT neck_1
                {
                  OFFSET -1.29193e-17 4.78644 0.715339
                  CHANNELS 6 Xposition Yposition Zposition Zrotation Xrotation Yrotation
                  JOINT neck_2
                  {
                    OFFSET -1.8116e-17 4.82109 0.421791
                    CHANNELS 6 Xposition Yposition Zposition Zrotation Xrotation Yrotation
                    JOINT head
                    {
                      OFFSET -2.00958e-17 4.83041 0.765062
                      CHANNELS 6 Xposition Yposition Zposition Zrotation Xrotation Yrotation
                      End Site
                      {
                        OFFSET 0 0.1 0
                      }
                    }
                  }
                }
                JOINT l_shoulder
                {
                  OFFSET 1.23299 -7.60731 7.53374
                  CHANNELS 6 Xposition Yposition Zposition Zrotation Xrotation Yrotation
                  JOINT l_up_arm
                  {
                    OFFSET 12.9547 3.2495 -3.26872
                    CHANNELS 6 Xposition Yposition Zposition Zrotation Xrotation Yrotation
                    JOINT l_low_arm
                    {
                      OFFSET 29.2081 0.0598081 0.137039
                      CHANNELS 6 Xposition Yposition Zposition Zrotation Xrotation Yrotation
                      JOINT l_hand
                      {
                        OFFSET 24.234 0.0496219 0.113701
                        CHANNELS 6 Xposition Yposition Zposition Zrotation Xrotation Yrotation
                        End Site
                        {
                          OFFSET 0.1 0 0
                        }
                      }
                    }
                  }
                }
                JOINT r_shoulder
                {
                  OFFSET -1.23299 -7.60729 7.53365
                  CHANNELS 6 Xposition Yposition Zposition Zrotation Xrotation Yrotation
                  JOINT r_up_arm
                  {
                    OFFSET -12.9547 3.2495 -3.26872
                    CHANNELS 6 Xposition Yposition Zposition Zrotation Xrotation Yrotation
                    JOINT r_low_arm
                    {
                      OFFSET -29.2081 0.0598081 0.137039
                      CHANNELS 6 Xposition Yposition Zposition Zrotation Xrotation Yrotation
                      JOINT r_hand
                      {
                        OFFSET -24.234 0.0496218 0.113702
                        CHANNELS 6 Xposition Yposition Zposition Zrotation Xrotation Yrotation
                        End Site
                        {
                          OFFSET -0.1 0 0
                        }
                      }
                    }
                  }
                }
              }
            }
          }
        }
      }
    }
  }
  JOINT l_up_leg
  {
    OFFSET 9.23673 -4.20556 2.0327
    CHANNELS 6 Xposition Yposition Zposition Zrotation Xrotation Yrotation
    JOINT l_low_leg
    {
      OFFSET -0.852353 -38.7721 -0.655187
      CHANNELS 6 Xposition Yposition Zposition Zrotation Xrotation Yrotation
      JOINT l_foot
      {
        OFFSET -2.32622 -40.4017 -6.04875
        CHANNELS 6 Xposition Yposition Zposition Zrotation Xrotation Yrotation
        JOINT l_toes
        {
          OFFSET 0.779096 -9.8844 12.4959
          CHANNELS 6 Xposition Yposition Zposition Zrotation Xrotation Yrotation
          End Site
          {
            OFFSET 0 0 0.1
          }
        }
      }
    }
  }
  JOINT r_up_leg
  {
    OFFSET -9.23673 -4.20556 2.0327
    CHANNELS 6 Xposition Yposition Zposition Zrotation Xrotation Yrotation
    JOINT r_low_leg
    {
      OFFSET 0.852353 -38.7721 -0.655187
      CHANNELS 6 Xposition Yposition Zposition Zrotation Xrotation Yrotation
      JOINT r_foot
      {
        OFFSET 2.32622 -40.4017 -6.04875
        CHANNELS 6 Xposition Yposition Zposition Zrotation Xrotation Yrotation
        JOINT r_toes
        {
          OFFSET -0.779096 -9.8844 12.4959
          CHANNELS 6 Xposition Yposition Zposition Zrotation Xrotation Yrotation
          End Site
          {
            OFFSET 0 0 0.1
          }
        }
      }
    }
  }
}
MOTION
Frames: 6
Frame Time: 0.016667
-1.00959 91.7123 50.5184 7.33771 -4.19118 -0.356258 0 5.07867 -1.15138 -2.909 5.86085 0.0397726 0 5.61661 1.07143 -2.23564 3.99114 -0.312036 -1.02604e-17 5.98978 0.11501 -1.69061 2.31542 -0.258449 -1.10457e-17 6.50583 -0.443523 -1.06748 -1.03292 -0.323603 -1.97295e-17 7.60548 -1.50593 -0.465552 -2.62832 -0.271872 -2.53307e-17 9.49737 -0.914492 0.0938077 -4.86769 -0.558996 -2.90401e-17 10.5513 1.57691 0.00861432 1.13227 -0.15981 -1.29193e-17 4.78644 0.715339 0.829254 8.67093 2.5034 -1.8116e-17 4.82109 0.421791 0.743607 -4.92576 0.97044 -2.00958e-17 4.83041 0.765062 0.0656592 -8.70635 3.87474 1.23299 -7.60731 7.53374 18.0237 5.34352 2.66145 12.9547 3.2495 -3.26872 -97.0381 24.7097 9.06123 29.2081 0.0598081 0.137039 3.70659 -0.572401 -18.144 24.234 0.0496219 0.113701 -5.80691 -26.8438 -1.63583 -1.23299 -7.60729 7.53365 -19.386 4.56448 -4.2341 -12.9547 3.2495 -3.26872 100.372 19.5432 -7.6408 -29.2081 0.0598081 0.137039 -3.62051 -0.544946 17.7081 -24.234 0.0496218 0.113702 4.42898 -14.869 0.0159127 9.23673 -4.20556 2.0327 -5.89094 3.46945 -9.41118 -0.852353 -38.7721 -0.655187 -0.168438 0.628737 -0.0100503 -2.32622 -40.4017 -6.04875 -1.10043 -1.51346 15.3001 0.779096 -9.8844 12.4959 2.48481e-17 -7.95139e-16 1.2424e-17 -9.23673 -4.20556 2.0327 -9.57799 -15.0655 19.2079 0.852353 -38.7721 -0.655187 4.93301 17.976 -0.464013 2.32622 -40.4017 -6.04875 0.594118 -2.89195 -15.3884 -0.779096 -9.8844 12.4959 -5.96354e-16 -5.59082e-16 -1.27471e-14 
-1.01152 91.7146 50.5564 7.31724 -4.19579 -0.37242 0 5.07867 -1.15138 -2.89856 5.8877 0.0487453 0 5.61661 1.07143 -2.22933 4.00762 -0.301425 -1.02604e-17 5.98978 0.11501 -1.68747 2.32433 -0.247945 -1.10457e-17 6.50583 -0.443523 -1.06735 -1.03777 -0.312948 -1.97295e-17 7.60548 -1.50593 -0.46615 -2.64049 -0.261247 -2.53307e-17 9.49737 -0.914492 0.0944106 -4.88478 -0.547159 -2.90401e-17 10.5513 1.57691 0.00828925 1.13459 -0.159643 -1.29193e-17 4.78644 0.715339 0.826102 8.68057 2.49459 -1.8116e-17 4.82109 0.421791 0.745033 -4.93439 0.966598 -2.00958e-17 4.83041 0.765062 0.0526059 -8.72697 3.8519 1.23299 -7.60731 7.53374 18.0239 5.33816 2.65961 12.9547 3.2495 -3.26872 -97.0433 24.5745 9.03777 29.2081 0.0598081 0.137039 3.70821 -0.572922 -18.1522 24.234 0.0496219 0.113701 -5.77369 -26.6781 -1.6335 -1.23299 -7.60729 7.53365 -19.4245 4.57385 -4.25351 -12.9547 3.2495 -3.26872 100.382 19.5759 -7.63466 -29.2081 0.0598081 0.137039 -3.62444 -0.54618 17.728 -24.234 0.0496218 0.113702 4.46889 -14.9536 0.0477205 9.23673 -4.20556 2.0327 -5.86419 3.49123 -9.38848 -0.852353 -38.7721 -0.655187 -0.165448 0.617572 -0.00988797 -2.32622 -40.4017 -6.04875 -1.10616 -1.52221 15.3023 0.779096 -9.8844 12.4959 2.20386e-16 -7.85973e-16 3.25819e-18 -9.23673 -4.20556 2.0327 -9.54017 -15.0608 19.242 0.852353 -38.7721 -0.655187 4.93278 17.9752 -0.463955 2.32622 -40.4017 -6.04875 0.591899 -2.87495 -15.3871 -0.779096 -9.8844 12.4959 -5.96354e-16 -5.59082e-16 -1.27471e-14 
-1.01175 91.7165 50.5939 7.31314 -4.19427 -0.372902 0 5.07867 -1.15138 -2.89263 5.91411 0.0568946 0 5.61661 1.07143 -2.22679 4.02312 -0.291819 -1.02604e-17 5.98978 0.11501 -1.68713 2.33163 -0.238319 -1.10457e-17 6.50583 -0.443523 -1.06908 -1.04541 -0.303049 -1.97295e-17 7.60548 -1.50593 -0.467676 -2.65495 -0.251136 -2.53307e-17 9.49737 -0.914492 0.0948638 -4.90452 -0.535958 -2.90401e-17 10.5513 1.57691 0.00821989 1.13736 -0.159256 -1.29193e-17 4.78644 0.715339 0.823426 8.68658 2.48289 -1.8116e-17 4.82109 0.421791 0.743146 -4.93198 0.961313 -2.00958e-17 4.83041 0.765062 0.0366032 -8.74413 3.82996 1.23299 -7.60731 7.53374 18.0245 5.3373 2.65395 12.9547 3.2495 -3.26872 -97.0407 24.4758 9.01754 29.2081 0.0598081 0.137039 3.7108 -0.573756 -18.1652 24.234 0.0496219 0.113701 -5.75472 -26.5488 -1.64592 -1.23299 -7.60729 7.53365 -19.4594 4.58755 -4.26281 -12.9547 3.2495 -3.26872 100.387 19.6225 -7.64275 -29.2081 0.0598081 0.137039 -3.63277 -0.5488 17.77 -24.234 0.0496218 0.113702 4.50839 -15.0704 0.0705587 9.23673 -4.20556 2.0327 -5.85462 3.50651 -9.3753 -0.852353 -38.7721 -0.655187 -0.162074 0.604975 -0.00970409 -2.32622 -40.4017 -6.04875 -1.11444 -1.52 15.3032 0.779096 -9.8844 12.4959 4.2891e-16 -7.76198e-16 -6.51638e-18 -9.23673 -4.20556 2.0327 -9.52605 -15.0527 19.2567 0.852353 -38.7721 -0.655187 4.93075 17.9683 -0.463452 2.32622 -40.4017 -6.04875 0.58713 -2.87503 -15.3868 -0.779096 -9.8844 12.4959 -5.96354e-16 -5.59082e-16 -1.27471e-14 
-1.01255 91.7185 50.6309 7.30061 -4.19482 -0.383394 0 5.07867 -1.15138 -2.88607 5.93841 0.06543 0 5.61661 1.07143 -2.2237 4.03749 -0.28185 -1.02604e-17 5.98978 0.11501 -1.68625 2.33864 -0.228281 -1.10457e-17 6.50583 -0.443523 -1.07034 -1.05196 -0.292793 -1.97295e-17 7.60548 -1.50593 -0.468781 -2.66751 -0.240656 -2.53307e-17 9.49737 -0.914492 0.0956174 -4.92169 -0.524677 -2.90401e-17 10.5513 1.57691 0.00810675 1.13985 -0.158735 -1.29193e-17 4.78644 0.715339 0.819315 8.69089 2.4797 -1.8116e-17 4.82109 0.421791 0.742092 -4.93434 0.959699 -2.00958e-17 4.83041 0.765062 0.0200975 -8.75261 3.80674 1.23299 -7.60731 7.53374 18.0358 5.33675 2.6514 12.9547 3.2495 -3.26872 -97.0446 24.394 8.9974 29.2081 0.0598081 0.137039 3.71656 -0.575615 -18.1944 24.234 0.0496219 0.113701 -5.73756 -26.4386 -1.6409 -1.23299 -7.60729 7.53365 -19.4792 4.59897 -4.27335 -12.9547 3.2495 -3.26872 100.387 19.6666 -7.64445 -29.2081 0.0598081 0.137039 -3.64184 -0.551657 17.8157 -24.234 0.0496218 0.113702 4.54622 -15.1713 0.0843113 9.23673 -4.20556 2.0327 -5.83647 3.51856 -9.36053 -0.852353 -38.7721 -0.655187 -0.161297 0.602077 -0.00966167 -2.32622 -40.4017 -6.04875 -1.11453 -1.52477 15.3045 0.779096 -9.8844 12.4959 -4.76983e-16 -8.2019e-16 3.7475e-17 -9.23673 -4.20556 2.0327 -9.49942 -15.0452 19.2767 0.852353 -38.7721 -0.655187 4.92822 17.9596 -0.462823 2.32622 -40.4017 -6.04875 0.578466 -2.86655 -15.386 -0.779096 -9.8844 12.4959 -5.96354e-16 -5.59082e-16 -1.27471e-14 
-1.0129 91.7217 50.6673 7.30186 -4.20849 -0.388413 0 5.07867 -1.15138 -2.88465 5.96457 0.0740411 0 5.61661 1.07143 -2.22467 4.05338 -0.271942 -1.02604e-17 5.98978 0.11501 -1.68829 2.34668 -0.218253 -1.10457e-17 6.50583 -0.443523 -1.07324 -1.05852 -0.282592 -1.97295e-17 7.60548 -1.50593 -0.470268 -2.68025 -0.22992 -2.53307e-17 9.49737 -0.914492 0.0970347 -4.94057 -0.513622 -2.90401e-17 10.5513 1.57691 0.00821063 1.14226 -0.158189 -1.29193e-17 4.78644 0.715339 0.814916 8.70579 2.46369 -1.8116e-17 4.82109 0.421791 0.740115 -4.93125 0.952121 -2.00958e-17 4.83041 0.765062 0.00263656 -8.76523 3.79374 1.23299 -7.60731 7.53374 18.0905 5.34058 2.65316 12.9547 3.2495 -3.26872 -97.0766 24.3512 8.97552 29.2081 0.0598081 0.137039 3.72183 -0.577319 -18.221 24.234 0.0496219 0.113701 -5.74135 -26.3453 -1.63796 -1.23299 -7.60729 7.53365 -19.512 4.61132 -4.28437 -12.9547 3.2495 -3.26872 100.402 19.7058 -7.64605 -29.2081 0.0598081 0.137039 -3.64896 -0.55391 17.8517 -24.234 0.0496218 0.113702 4.5829 -15.2609 0.0919199 9.23673 -4.20556 2.0327 -5.83154 3.53673 -9.34031 -0.852353 -38.7721 -0.655187 -0.163092 0.608778 -0.00975967 -2.32622 -40.4017 -6.04875 -1.12208 -1.51633 15.3054 0.779096 -9.8844 12.4959 3.24648e-16 -7.8577e-16 3.05528e-18 -9.23673 -4.20556 2.0327 -9.48843 -15.0218 19.3008 0.852353 -38.7721 -0.655187 4.92509 17.9488 -0.462047 2.32622 -40.4017 -6.04875 0.577702 -2.86393 -15.3862 -0.779096 -9.8844 12.4959 -5.96354e-16 -5.59082e-16 -1.27471e-14 
-1.01298 91.7238 50.7032 7.29938 -4.21019 -0.391497 0 5.07867 -1.15138 -2.88401 5.98898 0.0807345 0 5.61661 1.07143 -2.22603 4.06845 -0.264325 -1.02604e-17 5.98978 0.11501 -1.6905 2.35441 -0.210531 -1.10457e-17 6.50583 -0.443523 -1.0762 -1.06425 -0.274738 -1.97295e-17 7.60548 -1.50593 -0.472141 -2.6922 -0.221547 -2.53307e-17 9.49737 -0.914492 0.0973962 -4.9578 -0.504771 -2.90401e-17 10.5513 1.57691 0.00828406 1.14446 -0.157753 -1.29193e-17 4.78644 0.715339 0.809959 8.71272 2.46029 -1.8116e-17 4.82109 0.421791 0.735687 -4.93511 0.950236 -2.00958e-17 4.83041 0.765062 -0.0143824 -8.77724 3.77225 1.23299 -7.60731 7.53374 18.1326 5.34585 2.65094 12.9547 3.2495 -3.26872 -97.1036 24.3173 8.95661 29.2081 0.0598081 0.137039 3.72793 -0.579293 -18.2519 24.234 0.0496219 0.113701 -5.73469 -26.272 -1.63888 -1.23299 -7.60729 7.53365 -19.5341 4.62256 -4.29066 -12.9547 3.2495 -3.26872 100.408 19.7538 -7.64297 -29.2081 0.0598081 0.137039 -3.65429 -0.555597 17.8786 -24.234 0.0496218 0.113702 4.62642 -15.3575 0.116209 9.23673 -4.20556 2.0327 -5.82261 3.54953 -9.32051 -0.852353 -38.7721 -0.655187 -0.162084 0.605013 -0.00970463 -2.32622 -40.4017 -6.04875 -1.13524 -1.51598 15.3069 0.779096 -9.8844 12.4959 2.48481e-17 -7.95139e-16 1.2424e-17 -9.23673 -4.20556 2.0327 -9.47376 -15.0096 19.3194 0.852353 -38.7721 -0.655187 4.92193 17.938 -0.461264 2.32622 -40.4017 -6.04875 0.570878 -2.86282 -15.3865 -0.779096 -9.8844 12.4959 -5.96354e-16 -5.59082e-16 -1.27471e-14 
